<mxfile host="app.diagrams.net" agent="Mozilla/5.0 (Windows NT 10.0; Win64; x64) AppleWebKit/537.36 (KHTML, like Gecko) Chrome/128.0.0.0 YaBrowser/24.10.0.0 Safari/537.36" version="25.0.3">
  <diagram id="C5RBs43oDa-KdzZeNtuy" name="Page-1">
    <mxGraphModel dx="880" dy="479" grid="1" gridSize="10" guides="1" tooltips="1" connect="1" arrows="1" fold="1" page="1" pageScale="1" pageWidth="827" pageHeight="1169" math="0" shadow="0">
      <root>
        <mxCell id="WIyWlLk6GJQsqaUBKTNV-0" />
        <mxCell id="WIyWlLk6GJQsqaUBKTNV-1" parent="WIyWlLk6GJQsqaUBKTNV-0" />
        <mxCell id="Nn09dtidnY6ywCwsUW2J-22" value="" style="edgeStyle=orthogonalEdgeStyle;rounded=0;orthogonalLoop=1;jettySize=auto;html=1;" edge="1" parent="WIyWlLk6GJQsqaUBKTNV-1" source="Nn09dtidnY6ywCwsUW2J-2">
          <mxGeometry relative="1" as="geometry">
            <mxPoint x="190" y="380" as="targetPoint" />
          </mxGeometry>
        </mxCell>
        <mxCell id="Nn09dtidnY6ywCwsUW2J-2" value="Автобус" style="rounded=0;whiteSpace=wrap;html=1;" vertex="1" parent="WIyWlLk6GJQsqaUBKTNV-1">
          <mxGeometry x="130" y="250" width="120" height="60" as="geometry" />
        </mxCell>
        <mxCell id="Nn09dtidnY6ywCwsUW2J-4" style="edgeStyle=orthogonalEdgeStyle;rounded=0;orthogonalLoop=1;jettySize=auto;html=1;entryX=0;entryY=0.5;entryDx=0;entryDy=0;" edge="1" parent="WIyWlLk6GJQsqaUBKTNV-1" source="Nn09dtidnY6ywCwsUW2J-3" target="Nn09dtidnY6ywCwsUW2J-2">
          <mxGeometry relative="1" as="geometry" />
        </mxCell>
        <mxCell id="Nn09dtidnY6ywCwsUW2J-3" value="Номер&lt;div&gt;Автобуса&lt;/div&gt;" style="ellipse;whiteSpace=wrap;html=1;" vertex="1" parent="WIyWlLk6GJQsqaUBKTNV-1">
          <mxGeometry x="30" y="150" width="100" height="70" as="geometry" />
        </mxCell>
        <mxCell id="Nn09dtidnY6ywCwsUW2J-6" style="edgeStyle=orthogonalEdgeStyle;rounded=0;orthogonalLoop=1;jettySize=auto;html=1;entryX=0.5;entryY=0;entryDx=0;entryDy=0;" edge="1" parent="WIyWlLk6GJQsqaUBKTNV-1" source="Nn09dtidnY6ywCwsUW2J-5" target="Nn09dtidnY6ywCwsUW2J-2">
          <mxGeometry relative="1" as="geometry" />
        </mxCell>
        <mxCell id="Nn09dtidnY6ywCwsUW2J-5" value="Марка" style="ellipse;whiteSpace=wrap;html=1;" vertex="1" parent="WIyWlLk6GJQsqaUBKTNV-1">
          <mxGeometry x="145" y="150" width="90" height="70" as="geometry" />
        </mxCell>
        <mxCell id="Nn09dtidnY6ywCwsUW2J-8" style="edgeStyle=orthogonalEdgeStyle;rounded=0;orthogonalLoop=1;jettySize=auto;html=1;entryX=1;entryY=0.5;entryDx=0;entryDy=0;" edge="1" parent="WIyWlLk6GJQsqaUBKTNV-1" source="Nn09dtidnY6ywCwsUW2J-7" target="Nn09dtidnY6ywCwsUW2J-2">
          <mxGeometry relative="1" as="geometry" />
        </mxCell>
        <mxCell id="Nn09dtidnY6ywCwsUW2J-10" value="" style="edgeStyle=orthogonalEdgeStyle;rounded=0;orthogonalLoop=1;jettySize=auto;html=1;" edge="1" parent="WIyWlLk6GJQsqaUBKTNV-1" source="Nn09dtidnY6ywCwsUW2J-7" target="Nn09dtidnY6ywCwsUW2J-9">
          <mxGeometry relative="1" as="geometry" />
        </mxCell>
        <mxCell id="Nn09dtidnY6ywCwsUW2J-7" value="Управляется" style="rhombus;whiteSpace=wrap;html=1;" vertex="1" parent="WIyWlLk6GJQsqaUBKTNV-1">
          <mxGeometry x="290" y="240" width="80" height="80" as="geometry" />
        </mxCell>
        <mxCell id="Nn09dtidnY6ywCwsUW2J-9" value="Водитель" style="whiteSpace=wrap;html=1;" vertex="1" parent="WIyWlLk6GJQsqaUBKTNV-1">
          <mxGeometry x="430" y="250" width="120" height="60" as="geometry" />
        </mxCell>
        <mxCell id="Nn09dtidnY6ywCwsUW2J-12" style="edgeStyle=orthogonalEdgeStyle;rounded=0;orthogonalLoop=1;jettySize=auto;html=1;exitX=0.5;exitY=1;exitDx=0;exitDy=0;entryX=0.5;entryY=0;entryDx=0;entryDy=0;" edge="1" parent="WIyWlLk6GJQsqaUBKTNV-1" source="Nn09dtidnY6ywCwsUW2J-11" target="Nn09dtidnY6ywCwsUW2J-9">
          <mxGeometry relative="1" as="geometry" />
        </mxCell>
        <mxCell id="Nn09dtidnY6ywCwsUW2J-11" value="Номер вод.&lt;div&gt;Удостоверения&lt;/div&gt;" style="ellipse;whiteSpace=wrap;html=1;" vertex="1" parent="WIyWlLk6GJQsqaUBKTNV-1">
          <mxGeometry x="390" y="150" width="110" height="70" as="geometry" />
        </mxCell>
        <mxCell id="Nn09dtidnY6ywCwsUW2J-14" style="edgeStyle=orthogonalEdgeStyle;rounded=0;orthogonalLoop=1;jettySize=auto;html=1;entryX=0.5;entryY=0;entryDx=0;entryDy=0;" edge="1" parent="WIyWlLk6GJQsqaUBKTNV-1" source="Nn09dtidnY6ywCwsUW2J-13" target="Nn09dtidnY6ywCwsUW2J-9">
          <mxGeometry relative="1" as="geometry">
            <Array as="points">
              <mxPoint x="575" y="240" />
              <mxPoint x="490" y="240" />
            </Array>
          </mxGeometry>
        </mxCell>
        <mxCell id="Nn09dtidnY6ywCwsUW2J-13" value="Категория" style="ellipse;whiteSpace=wrap;html=1;" vertex="1" parent="WIyWlLk6GJQsqaUBKTNV-1">
          <mxGeometry x="520" y="150" width="110" height="70" as="geometry" />
        </mxCell>
        <mxCell id="Nn09dtidnY6ywCwsUW2J-16" style="edgeStyle=orthogonalEdgeStyle;rounded=0;orthogonalLoop=1;jettySize=auto;html=1;entryX=0.5;entryY=1;entryDx=0;entryDy=0;" edge="1" parent="WIyWlLk6GJQsqaUBKTNV-1" source="Nn09dtidnY6ywCwsUW2J-15" target="Nn09dtidnY6ywCwsUW2J-9">
          <mxGeometry relative="1" as="geometry" />
        </mxCell>
        <mxCell id="Nn09dtidnY6ywCwsUW2J-15" value="ФИО" style="ellipse;whiteSpace=wrap;html=1;" vertex="1" parent="WIyWlLk6GJQsqaUBKTNV-1">
          <mxGeometry x="380" y="340" width="110" height="70" as="geometry" />
        </mxCell>
        <mxCell id="Nn09dtidnY6ywCwsUW2J-18" style="edgeStyle=orthogonalEdgeStyle;rounded=0;orthogonalLoop=1;jettySize=auto;html=1;entryX=0.5;entryY=1;entryDx=0;entryDy=0;" edge="1" parent="WIyWlLk6GJQsqaUBKTNV-1" source="Nn09dtidnY6ywCwsUW2J-17" target="Nn09dtidnY6ywCwsUW2J-9">
          <mxGeometry relative="1" as="geometry" />
        </mxCell>
        <mxCell id="Nn09dtidnY6ywCwsUW2J-17" value="Адрес" style="ellipse;whiteSpace=wrap;html=1;" vertex="1" parent="WIyWlLk6GJQsqaUBKTNV-1">
          <mxGeometry x="500" y="340" width="110" height="70" as="geometry" />
        </mxCell>
        <mxCell id="Nn09dtidnY6ywCwsUW2J-24" value="" style="edgeStyle=orthogonalEdgeStyle;rounded=0;orthogonalLoop=1;jettySize=auto;html=1;" edge="1" parent="WIyWlLk6GJQsqaUBKTNV-1" source="Nn09dtidnY6ywCwsUW2J-21" target="Nn09dtidnY6ywCwsUW2J-23">
          <mxGeometry relative="1" as="geometry" />
        </mxCell>
        <mxCell id="Nn09dtidnY6ywCwsUW2J-21" value="Следует" style="rhombus;whiteSpace=wrap;html=1;rounded=0;" vertex="1" parent="WIyWlLk6GJQsqaUBKTNV-1">
          <mxGeometry x="370" y="440" width="80" height="80" as="geometry" />
        </mxCell>
        <mxCell id="Nn09dtidnY6ywCwsUW2J-23" value="Маршрут" style="whiteSpace=wrap;html=1;rounded=0;" vertex="1" parent="WIyWlLk6GJQsqaUBKTNV-1">
          <mxGeometry x="350" y="610" width="120" height="60" as="geometry" />
        </mxCell>
        <mxCell id="Nn09dtidnY6ywCwsUW2J-55" value="" style="edgeStyle=orthogonalEdgeStyle;rounded=0;orthogonalLoop=1;jettySize=auto;html=1;" edge="1" parent="WIyWlLk6GJQsqaUBKTNV-1" source="Nn09dtidnY6ywCwsUW2J-25" target="Nn09dtidnY6ywCwsUW2J-54">
          <mxGeometry relative="1" as="geometry" />
        </mxCell>
        <mxCell id="Nn09dtidnY6ywCwsUW2J-70" value="М,1" style="edgeLabel;html=1;align=center;verticalAlign=middle;resizable=0;points=[];" vertex="1" connectable="0" parent="Nn09dtidnY6ywCwsUW2J-55">
          <mxGeometry x="-0.1381" relative="1" as="geometry">
            <mxPoint as="offset" />
          </mxGeometry>
        </mxCell>
        <mxCell id="Nn09dtidnY6ywCwsUW2J-62" value="" style="edgeStyle=orthogonalEdgeStyle;rounded=0;orthogonalLoop=1;jettySize=auto;html=1;" edge="1" parent="WIyWlLk6GJQsqaUBKTNV-1" source="Nn09dtidnY6ywCwsUW2J-25" target="Nn09dtidnY6ywCwsUW2J-61">
          <mxGeometry relative="1" as="geometry" />
        </mxCell>
        <mxCell id="Nn09dtidnY6ywCwsUW2J-63" value="" style="edgeStyle=orthogonalEdgeStyle;rounded=0;orthogonalLoop=1;jettySize=auto;html=1;" edge="1" parent="WIyWlLk6GJQsqaUBKTNV-1" source="Nn09dtidnY6ywCwsUW2J-25" target="Nn09dtidnY6ywCwsUW2J-61">
          <mxGeometry relative="1" as="geometry" />
        </mxCell>
        <mxCell id="Nn09dtidnY6ywCwsUW2J-65" style="edgeStyle=orthogonalEdgeStyle;rounded=0;orthogonalLoop=1;jettySize=auto;html=1;entryX=1;entryY=0.5;entryDx=0;entryDy=0;" edge="1" parent="WIyWlLk6GJQsqaUBKTNV-1" source="Nn09dtidnY6ywCwsUW2J-25" target="Nn09dtidnY6ywCwsUW2J-64">
          <mxGeometry relative="1" as="geometry" />
        </mxCell>
        <mxCell id="Nn09dtidnY6ywCwsUW2J-25" value="Мебель" style="rounded=0;whiteSpace=wrap;html=1;" vertex="1" parent="WIyWlLk6GJQsqaUBKTNV-1">
          <mxGeometry x="920" y="370" width="120" height="60" as="geometry" />
        </mxCell>
        <mxCell id="Nn09dtidnY6ywCwsUW2J-37" value="" style="edgeStyle=orthogonalEdgeStyle;rounded=0;orthogonalLoop=1;jettySize=auto;html=1;" edge="1" parent="WIyWlLk6GJQsqaUBKTNV-1" source="Nn09dtidnY6ywCwsUW2J-26" target="Nn09dtidnY6ywCwsUW2J-36">
          <mxGeometry relative="1" as="geometry" />
        </mxCell>
        <mxCell id="Nn09dtidnY6ywCwsUW2J-38" value="" style="edgeStyle=orthogonalEdgeStyle;rounded=0;orthogonalLoop=1;jettySize=auto;html=1;" edge="1" parent="WIyWlLk6GJQsqaUBKTNV-1" source="Nn09dtidnY6ywCwsUW2J-26" target="Nn09dtidnY6ywCwsUW2J-36">
          <mxGeometry relative="1" as="geometry" />
        </mxCell>
        <mxCell id="Nn09dtidnY6ywCwsUW2J-41" style="edgeStyle=orthogonalEdgeStyle;rounded=0;orthogonalLoop=1;jettySize=auto;html=1;entryX=1;entryY=0.5;entryDx=0;entryDy=0;" edge="1" parent="WIyWlLk6GJQsqaUBKTNV-1" source="Nn09dtidnY6ywCwsUW2J-26" target="Nn09dtidnY6ywCwsUW2J-40">
          <mxGeometry relative="1" as="geometry" />
        </mxCell>
        <mxCell id="Nn09dtidnY6ywCwsUW2J-43" style="edgeStyle=orthogonalEdgeStyle;rounded=0;orthogonalLoop=1;jettySize=auto;html=1;entryX=1;entryY=0.5;entryDx=0;entryDy=0;" edge="1" parent="WIyWlLk6GJQsqaUBKTNV-1" source="Nn09dtidnY6ywCwsUW2J-26" target="Nn09dtidnY6ywCwsUW2J-42">
          <mxGeometry relative="1" as="geometry" />
        </mxCell>
        <mxCell id="Nn09dtidnY6ywCwsUW2J-52" value="" style="edgeStyle=orthogonalEdgeStyle;rounded=0;orthogonalLoop=1;jettySize=auto;html=1;" edge="1" parent="WIyWlLk6GJQsqaUBKTNV-1" source="Nn09dtidnY6ywCwsUW2J-26" target="Nn09dtidnY6ywCwsUW2J-51">
          <mxGeometry relative="1" as="geometry" />
        </mxCell>
        <mxCell id="Nn09dtidnY6ywCwsUW2J-72" value="1,М" style="edgeLabel;html=1;align=center;verticalAlign=middle;resizable=0;points=[];" vertex="1" connectable="0" parent="Nn09dtidnY6ywCwsUW2J-52">
          <mxGeometry x="0.1129" relative="1" as="geometry">
            <mxPoint x="10" as="offset" />
          </mxGeometry>
        </mxCell>
        <mxCell id="Nn09dtidnY6ywCwsUW2J-26" value="Сотрудник" style="rounded=0;whiteSpace=wrap;html=1;" vertex="1" parent="WIyWlLk6GJQsqaUBKTNV-1">
          <mxGeometry x="1100" y="740" width="120" height="60" as="geometry" />
        </mxCell>
        <mxCell id="Nn09dtidnY6ywCwsUW2J-45" value="" style="edgeStyle=orthogonalEdgeStyle;rounded=0;orthogonalLoop=1;jettySize=auto;html=1;" edge="1" parent="WIyWlLk6GJQsqaUBKTNV-1" source="Nn09dtidnY6ywCwsUW2J-27" target="Nn09dtidnY6ywCwsUW2J-44">
          <mxGeometry relative="1" as="geometry" />
        </mxCell>
        <mxCell id="Nn09dtidnY6ywCwsUW2J-77" value="1,М" style="edgeLabel;html=1;align=center;verticalAlign=middle;resizable=0;points=[];" vertex="1" connectable="0" parent="Nn09dtidnY6ywCwsUW2J-45">
          <mxGeometry x="-0.569" y="2" relative="1" as="geometry">
            <mxPoint x="11" y="2" as="offset" />
          </mxGeometry>
        </mxCell>
        <mxCell id="Nn09dtidnY6ywCwsUW2J-27" value="Помещение" style="rounded=0;whiteSpace=wrap;html=1;" vertex="1" parent="WIyWlLk6GJQsqaUBKTNV-1">
          <mxGeometry x="1100" y="480" width="120" height="60" as="geometry" />
        </mxCell>
        <mxCell id="Nn09dtidnY6ywCwsUW2J-33" value="" style="edgeStyle=orthogonalEdgeStyle;rounded=0;orthogonalLoop=1;jettySize=auto;html=1;" edge="1" parent="WIyWlLk6GJQsqaUBKTNV-1" source="Nn09dtidnY6ywCwsUW2J-28" target="Nn09dtidnY6ywCwsUW2J-32">
          <mxGeometry relative="1" as="geometry" />
        </mxCell>
        <mxCell id="Nn09dtidnY6ywCwsUW2J-47" style="edgeStyle=orthogonalEdgeStyle;rounded=0;orthogonalLoop=1;jettySize=auto;html=1;" edge="1" parent="WIyWlLk6GJQsqaUBKTNV-1" source="Nn09dtidnY6ywCwsUW2J-28" target="Nn09dtidnY6ywCwsUW2J-44">
          <mxGeometry relative="1" as="geometry" />
        </mxCell>
        <mxCell id="Nn09dtidnY6ywCwsUW2J-76" value="1,1" style="edgeLabel;html=1;align=center;verticalAlign=middle;resizable=0;points=[];" vertex="1" connectable="0" parent="Nn09dtidnY6ywCwsUW2J-47">
          <mxGeometry x="0.1219" y="1" relative="1" as="geometry">
            <mxPoint as="offset" />
          </mxGeometry>
        </mxCell>
        <mxCell id="Nn09dtidnY6ywCwsUW2J-28" value="Корпус" style="rounded=0;whiteSpace=wrap;html=1;" vertex="1" parent="WIyWlLk6GJQsqaUBKTNV-1">
          <mxGeometry x="1390" y="480" width="120" height="60" as="geometry" />
        </mxCell>
        <mxCell id="Nn09dtidnY6ywCwsUW2J-35" value="" style="edgeStyle=orthogonalEdgeStyle;rounded=0;orthogonalLoop=1;jettySize=auto;html=1;" edge="1" parent="WIyWlLk6GJQsqaUBKTNV-1" source="Nn09dtidnY6ywCwsUW2J-29" target="Nn09dtidnY6ywCwsUW2J-34">
          <mxGeometry relative="1" as="geometry" />
        </mxCell>
        <mxCell id="Nn09dtidnY6ywCwsUW2J-59" value="" style="edgeStyle=orthogonalEdgeStyle;rounded=0;orthogonalLoop=1;jettySize=auto;html=1;" edge="1" parent="WIyWlLk6GJQsqaUBKTNV-1" source="Nn09dtidnY6ywCwsUW2J-29" target="Nn09dtidnY6ywCwsUW2J-58">
          <mxGeometry relative="1" as="geometry" />
        </mxCell>
        <mxCell id="Nn09dtidnY6ywCwsUW2J-68" value="1,М" style="edgeLabel;html=1;align=center;verticalAlign=middle;resizable=0;points=[];" vertex="1" connectable="0" parent="Nn09dtidnY6ywCwsUW2J-59">
          <mxGeometry x="-0.0286" y="1" relative="1" as="geometry">
            <mxPoint as="offset" />
          </mxGeometry>
        </mxCell>
        <mxCell id="Nn09dtidnY6ywCwsUW2J-29" value="Фирма" style="rounded=0;whiteSpace=wrap;html=1;" vertex="1" parent="WIyWlLk6GJQsqaUBKTNV-1">
          <mxGeometry x="1090" y="250" width="120" height="60" as="geometry" />
        </mxCell>
        <mxCell id="Nn09dtidnY6ywCwsUW2J-78" value="" style="edgeStyle=orthogonalEdgeStyle;rounded=0;orthogonalLoop=1;jettySize=auto;html=1;" edge="1" parent="WIyWlLk6GJQsqaUBKTNV-1" source="Nn09dtidnY6ywCwsUW2J-31" target="Nn09dtidnY6ywCwsUW2J-27">
          <mxGeometry relative="1" as="geometry" />
        </mxCell>
        <mxCell id="Nn09dtidnY6ywCwsUW2J-31" value="Номер помещения" style="ellipse;whiteSpace=wrap;html=1;" vertex="1" parent="WIyWlLk6GJQsqaUBKTNV-1">
          <mxGeometry x="1115" y="410" width="90" height="50" as="geometry" />
        </mxCell>
        <mxCell id="Nn09dtidnY6ywCwsUW2J-32" value="Номер" style="ellipse;whiteSpace=wrap;html=1;rounded=0;" vertex="1" parent="WIyWlLk6GJQsqaUBKTNV-1">
          <mxGeometry x="1407.5" y="400" width="85" height="50" as="geometry" />
        </mxCell>
        <mxCell id="Nn09dtidnY6ywCwsUW2J-34" value="Номер Корпума" style="ellipse;whiteSpace=wrap;html=1;rounded=0;" vertex="1" parent="WIyWlLk6GJQsqaUBKTNV-1">
          <mxGeometry x="1265" y="255" width="80" height="50" as="geometry" />
        </mxCell>
        <mxCell id="Nn09dtidnY6ywCwsUW2J-36" value="ФИО" style="ellipse;whiteSpace=wrap;html=1;rounded=0;" vertex="1" parent="WIyWlLk6GJQsqaUBKTNV-1">
          <mxGeometry x="920" y="785" width="80" height="50" as="geometry" />
        </mxCell>
        <mxCell id="Nn09dtidnY6ywCwsUW2J-40" value="Должность" style="ellipse;whiteSpace=wrap;html=1;" vertex="1" parent="WIyWlLk6GJQsqaUBKTNV-1">
          <mxGeometry x="920" y="720" width="80" height="50" as="geometry" />
        </mxCell>
        <mxCell id="Nn09dtidnY6ywCwsUW2J-42" value="С.Т." style="ellipse;whiteSpace=wrap;html=1;" vertex="1" parent="WIyWlLk6GJQsqaUBKTNV-1">
          <mxGeometry x="920" y="850" width="80" height="50" as="geometry" />
        </mxCell>
        <mxCell id="Nn09dtidnY6ywCwsUW2J-44" value="Принадлежит" style="rhombus;whiteSpace=wrap;html=1;rounded=0;" vertex="1" parent="WIyWlLk6GJQsqaUBKTNV-1">
          <mxGeometry x="1260" y="470" width="80" height="80" as="geometry" />
        </mxCell>
        <mxCell id="Nn09dtidnY6ywCwsUW2J-53" style="edgeStyle=orthogonalEdgeStyle;rounded=0;orthogonalLoop=1;jettySize=auto;html=1;entryX=0.5;entryY=1;entryDx=0;entryDy=0;" edge="1" parent="WIyWlLk6GJQsqaUBKTNV-1" source="Nn09dtidnY6ywCwsUW2J-51" target="Nn09dtidnY6ywCwsUW2J-27">
          <mxGeometry relative="1" as="geometry" />
        </mxCell>
        <mxCell id="Nn09dtidnY6ywCwsUW2J-73" value="1,М" style="edgeLabel;html=1;align=center;verticalAlign=middle;resizable=0;points=[];" vertex="1" connectable="0" parent="Nn09dtidnY6ywCwsUW2J-53">
          <mxGeometry x="0.0248" relative="1" as="geometry">
            <mxPoint x="10" as="offset" />
          </mxGeometry>
        </mxCell>
        <mxCell id="Nn09dtidnY6ywCwsUW2J-51" value="Отвечает" style="rhombus;whiteSpace=wrap;html=1;rounded=0;" vertex="1" parent="WIyWlLk6GJQsqaUBKTNV-1">
          <mxGeometry x="1120" y="590" width="80" height="80" as="geometry" />
        </mxCell>
        <mxCell id="Nn09dtidnY6ywCwsUW2J-56" value="" style="edgeStyle=orthogonalEdgeStyle;rounded=0;orthogonalLoop=1;jettySize=auto;html=1;" edge="1" parent="WIyWlLk6GJQsqaUBKTNV-1" source="Nn09dtidnY6ywCwsUW2J-54" target="Nn09dtidnY6ywCwsUW2J-27">
          <mxGeometry relative="1" as="geometry" />
        </mxCell>
        <mxCell id="Nn09dtidnY6ywCwsUW2J-71" value="1,М" style="edgeLabel;html=1;align=center;verticalAlign=middle;resizable=0;points=[];" vertex="1" connectable="0" parent="Nn09dtidnY6ywCwsUW2J-56">
          <mxGeometry x="0.2631" relative="1" as="geometry">
            <mxPoint as="offset" />
          </mxGeometry>
        </mxCell>
        <mxCell id="Nn09dtidnY6ywCwsUW2J-54" value="Принадлежит" style="rhombus;whiteSpace=wrap;html=1;rounded=0;" vertex="1" parent="WIyWlLk6GJQsqaUBKTNV-1">
          <mxGeometry x="940" y="470" width="80" height="80" as="geometry" />
        </mxCell>
        <mxCell id="Nn09dtidnY6ywCwsUW2J-60" value="" style="edgeStyle=orthogonalEdgeStyle;rounded=0;orthogonalLoop=1;jettySize=auto;html=1;" edge="1" parent="WIyWlLk6GJQsqaUBKTNV-1" source="Nn09dtidnY6ywCwsUW2J-58" target="Nn09dtidnY6ywCwsUW2J-25">
          <mxGeometry relative="1" as="geometry" />
        </mxCell>
        <mxCell id="Nn09dtidnY6ywCwsUW2J-67" value="1,М" style="edgeLabel;html=1;align=center;verticalAlign=middle;resizable=0;points=[];" vertex="1" connectable="0" parent="Nn09dtidnY6ywCwsUW2J-60">
          <mxGeometry x="0.04" y="8" relative="1" as="geometry">
            <mxPoint x="-8" y="4" as="offset" />
          </mxGeometry>
        </mxCell>
        <mxCell id="Nn09dtidnY6ywCwsUW2J-58" value="Принадлежит" style="rhombus;whiteSpace=wrap;html=1;rounded=0;" vertex="1" parent="WIyWlLk6GJQsqaUBKTNV-1">
          <mxGeometry x="940" y="240" width="80" height="80" as="geometry" />
        </mxCell>
        <mxCell id="Nn09dtidnY6ywCwsUW2J-61" value="Цена" style="ellipse;whiteSpace=wrap;html=1;rounded=0;" vertex="1" parent="WIyWlLk6GJQsqaUBKTNV-1">
          <mxGeometry x="740" y="330" width="80" height="50" as="geometry" />
        </mxCell>
        <mxCell id="Nn09dtidnY6ywCwsUW2J-64" value="Номер" style="ellipse;whiteSpace=wrap;html=1;" vertex="1" parent="WIyWlLk6GJQsqaUBKTNV-1">
          <mxGeometry x="740" y="420" width="80" height="50" as="geometry" />
        </mxCell>
      </root>
    </mxGraphModel>
  </diagram>
</mxfile>
